PathFileType	4	(X/Y/Z)	\\Move.snu.ac.kr\motion\Animal\091204_091205_Bird\091205_bird\Project 2\Capture day 2\Session 1\pigeon_009.trc
DataRate	CameraRate	NumFrames	NumMarkers	Units	OrigDataRate	OrigDataStartFrame	OrigNumFrames
240.0	240.0	18	14	mm	240.0	109	2292
Frame#	Time	14MarkersBird:Head			14MarkersBird:C_back			14MarkersBird:Spine			14MarkersBird:L-shoulder			14MarkersBird:L-elbow			14MarkersBird:L-wrist			14MarkersBird:L-hand			14MarkersBird:R-shoulder			14MarkersBird:R-elbow			14MarkersBird:R-Wrist			14MarkersBird:R-hand			14MarkersBird:C_Tail			14MarkersBird:L-Tale			14MarkersBird:R-Tale			
		X1	Y1	Z1	X2	Y2	Z2	X3	Y3	Z3	X4	Y4	Z4	X5	Y5	Z5	X6	Y6	Z6	X7	Y7	Z7	X8	Y8	Z8	X9	Y9	Z9	X10	Y10	Z10	X11	Y11	Z11	X12	Y12	Z12	X13	Y13	Z13	X14	Y14	Z14	

875	3.642	484.52994	2427.56396	-2118.73999	529.78180	2419.79907	-2079.35571	568.78235	2411.17310	-2042.13428	490.00381	2422.80273	-2081.94995	488.41702	2432.47046	-2056.12207	447.36255	2425.54541	-2055.71777	424.01981	2431.86206	-2042.88550	519.21667	2401.03052	-2114.85303	544.96967	2393.20044	-2123.45093	532.48517	2365.02148	-2152.14771	541.51703	2342.51709	-2181.10669	617.41724	2348.37036	-1945.10437	530.82874	2418.06567	-1944.96008	641.45477	2320.70142	-2061.13818	
876	3.646	478.70300	2426.23560	-2124.22510	524.15967	2419.68628	-2084.71338	562.95099	2411.25464	-2047.45947	483.83582	2421.77783	-2087.48071	478.97559	2426.83203	-2061.18750	440.65048	2413.79370	-2066.49805	415.97256	2411.75049	-2055.89136	513.31934	2400.45752	-2120.18628	535.78058	2387.62988	-2128.37598	515.93079	2359.50806	-2152.54541	516.80597	2331.58936	-2177.54004	611.61243	2349.15747	-1950.06750	525.24628	2417.55078	-1950.04944	636.11981	2320.43799	-2064.07935	
877	3.650	472.69061	2424.67798	-2129.85132	518.41772	2419.52905	-2090.27441	556.85852	2411.06519	-2052.83496	477.75140	2420.86646	-2093.22217	471.50616	2421.99390	-2066.40283	436.19876	2404.99268	-2077.90527	412.48309	2395.00049	-2070.69751	507.41928	2400.02515	-2125.70166	527.39594	2383.53223	-2132.50854	501.22256	2357.78491	-2152.87036	494.01099	2326.81323	-2172.72021	605.79108	2349.72412	-1955.29333	519.51703	2415.95923	-1955.00769	631.20166	2320.66064	-2066.78003	
878	3.654	466.46866	2422.87183	-2135.63794	512.45245	2419.26221	-2096.04224	550.52020	2410.52881	-2058.26929	471.64316	2419.96875	-2099.17383	465.69778	2418.18115	-2071.25537	433.05432	2400.05176	-2088.84033	412.10153	2383.60327	-2085.86182	501.48245	2399.55786	-2131.41479	520.53278	2380.88354	-2136.21240	489.57745	2359.24927	-2154.26367	475.16843	2327.39990	-2168.80078	599.81061	2349.83374	-1960.80042	513.49225	2413.16333	-1959.93469	626.36810	2321.05103	-2069.42700	
879	3.658	460.03464	2420.82300	-2141.61523	506.20499	2418.80298	-2102.02954	543.93884	2409.65112	-2063.81372	465.47437	2418.98828	-2105.32300	461.07965	2415.60815	-2075.54565	430.19659	2399.13281	-2098.33521	412.71283	2378.39624	-2099.78809	495.49689	2398.93115	-2137.30005	515.49298	2379.58203	-2139.84497	481.62750	2362.78613	-2157.45947	461.55789	2331.41602	-2167.41357	593.55646	2349.28662	-1966.62744	507.14426	2409.29297	-1964.95398	621.23364	2321.23486	-2072.29932	
880	3.662	453.41565	2418.55688	-2147.81006	499.67319	2418.03979	-2108.24536	537.12140	2408.48584	-2069.52710	459.25934	2417.84326	-2111.62524	457.32111	2414.52759	-2079.42310	426.85431	2401.58838	-2105.74438	412.32080	2378.74878	-2111.02417	489.43948	2398.03979	-2143.29761	512.14337	2379.57227	-2143.63086	477.26321	2367.18213	-2162.63330	453.54593	2336.50977	-2169.17725	586.95844	2347.93652	-1972.80750	500.55872	2404.68848	-1970.14917	615.47778	2320.88452	-2075.67285	
881	3.667	446.66769	2416.10840	-2154.22534	492.88998	2416.84839	-2114.67334	530.09247	2407.10059	-2075.42334	452.99664	2416.46826	-2118.01099	454.29419	2415.02295	-2083.34033	422.75525	2406.38916	-2111.01392	409.81470	2382.99683	-2118.64819	483.27646	2396.79517	-2149.32056	509.96945	2380.86621	-2147.60791	475.76285	2371.60034	-2169.56543	450.77014	2340.82373	-2173.69043	579.98657	2345.72534	-1979.32385	493.84830	2399.81543	-1975.54187	608.98462	2319.85596	-2079.76001	
882	3.671	439.86948	2413.51196	-2160.82690	485.89636	2415.12939	-2121.25684	522.89313	2405.54126	-2081.45581	446.63712	2414.82837	-2124.42603	451.90106	2416.83667	-2088.00293	418.20999	2412.66064	-2114.77979	405.30508	2389.38867	-2122.43604	476.99167	2395.20313	-2155.27954	508.12341	2383.49634	-2151.68286	476.19208	2375.78711	-2177.78711	452.59814	2343.62769	-2180.01611	572.64307	2342.73242	-1986.08215	487.05838	2395.16895	-1981.11804	601.91736	2318.27832	-2084.68848	
883	3.675	433.11688	2410.80957	-2167.55029	478.76013	2412.86792	-2127.92334	515.57019	2403.82178	-2087.55371	440.13104	2412.92993	-2130.86084	450.04123	2419.32593	-2094.07959	413.93628	2419.78223	-2118.00928	399.93320	2396.90527	-2122.78320	470.60052	2393.44360	-2161.13794	505.60019	2387.43237	-2155.73779	477.74097	2379.97632	-2186.56470	458.44934	2345.42603	-2187.18091	564.95636	2339.18848	-1992.93176	480.11548	2391.16333	-1986.87585	594.64124	2316.49585	-2090.48413	
884	3.679	426.49246	2408.05176	-2174.33032	471.58429	2410.16846	-2134.63354	508.16028	2401.93213	-2093.65723	433.50275	2410.82349	-2137.36914	448.65732	2421.59863	-2101.86450	410.71198	2427.18115	-2121.60449	395.39203	2405.39600	-2120.64111	464.12509	2391.81128	-2166.95264	501.50589	2392.43066	-2159.68799	479.69745	2384.63647	-2194.92847	467.60486	2347.67065	-2194.32690	556.99323	2335.42017	-1999.71643	472.83997	2388.02588	-1992.85193	587.54907	2314.90405	-2097.06104	
885	3.683	420.02774	2405.28809	-2181.12402	464.46048	2407.22607	-2141.38574	500.68295	2399.84741	-2099.73950	426.85385	2408.56836	-2144.03735	447.63141	2422.83374	-2111.19409	409.04138	2434.17969	-2126.27124	393.34479	2414.99976	-2117.54590	457.56714	2390.50000	-2172.81445	495.36523	2397.92700	-2163.46729	481.22272	2390.15698	-2201.95239	478.82288	2352.20166	-2200.72632	548.84448	2331.72485	-2006.29919	465.03506	2385.77026	-1999.10107	580.91437	2313.78467	-2104.23242	
886	3.688	413.69888	2402.55420	-2187.90479	457.42038	2404.26147	-2148.18115	493.16785	2397.53931	-2105.78369	420.29181	2406.21045	-2150.92188	446.64102	2422.53662	-2121.54736	408.93863	2440.06250	-2132.47705	394.75693	2425.53369	-2115.55786	450.93607	2389.42090	-2178.74390	489.44208	2404.90576	-2167.41260	481.37650	2396.56665	-2207.17188	490.29816	2360.55103	-2205.87598	540.58795	2328.27930	-2012.55627	456.60645	2384.25806	-2005.64429	574.82233	2313.22412	-2111.76172	
887	3.692	407.45410	2399.87061	-2194.66211	450.44928	2401.44019	-2154.97827	485.68253	2394.99219	-2111.74731	413.88623	2403.76001	-2157.98071	445.20551	2420.68359	-2132.28955	409.92456	2444.35181	-2140.34106	399.39832	2436.32666	-2116.72656	444.29343	2388.26172	-2184.67725	477.68515	2408.88989	-2170.64087	479.50870	2403.44287	-2210.74658	499.85522	2373.26392	-2209.50732	532.27863	2325.16626	-2018.38818	447.63400	2383.30078	-2012.43970	569.17853	2313.12134	-2119.41650	
888	3.696	401.27182	2397.26880	-2201.38965	443.65359	2398.83960	-2161.55420	478.39032	2391.92480	-2117.47363	407.81567	2401.07153	-2164.96704	441.77679	2417.16577	-2142.54639	410.67377	2445.83350	-2150.31372	406.35107	2444.98926	-2125.88696	437.89120	2386.35889	-2190.59619	467.07996	2409.13232	-2173.68042	474.18024	2409.47974	-2213.06274	500.88760	2390.85864	-2210.64795	524.02875	2322.77466	-2023.27917	438.25385	2382.86035	-2019.46033	563.87122	2313.29736	-2126.85620	
889	3.700	395.08887	2394.65308	-2208.12402	436.93298	2396.15991	-2168.07813	471.11118	2388.81152	-2123.20898	401.72845	2398.38574	-2171.86499	438.08704	2414.09741	-2152.62476	410.63034	2447.45923	-2159.84985	411.98279	2452.84717	-2134.94336	431.56094	2384.39575	-2196.57129	457.34958	2409.35815	-2177.47925	469.15161	2414.98535	-2216.02271	501.04626	2406.78442	-2212.25732	515.84552	2320.41992	-2028.13342	429.04846	2382.29272	-2026.44727	558.44440	2313.29980	-2134.19165	
890	3.704	388.94925	2392.04590	-2214.85767	430.41522	2393.45532	-2174.45459	463.92529	2385.42651	-2128.87842	395.74869	2395.62671	-2178.64819	433.24591	2410.95679	-2162.30078	409.30188	2448.09814	-2169.54932	416.54135	2458.76563	-2146.74512	425.43057	2382.07324	-2202.63623	448.65289	2407.30371	-2182.07886	463.19189	2419.30908	-2219.40527	496.98187	2422.09961	-2213.84595	507.77670	2318.41602	-2032.56177	419.91003	2381.80200	-2033.51917	553.00732	2313.16748	-2141.27905	
891	3.708	382.87262	2389.42554	-2221.59961	424.13928	2390.67041	-2180.70190	456.83228	2381.83105	-2134.52734	389.83575	2392.83984	-2185.32520	427.30023	2408.10107	-2171.46680	406.10791	2447.98608	-2178.77710	418.64966	2462.64478	-2159.91602	419.52490	2379.42480	-2208.82910	441.19519	2403.37622	-2187.62622	456.92535	2421.96680	-2223.76221	489.80310	2434.99365	-2216.50439	499.83206	2316.71509	-2036.66760	410.97586	2381.33325	-2040.68652	547.46381	2312.72241	-2148.01978	
892	3.713	376.88708	2386.77393	-2228.35400	418.09244	2387.77515	-2186.86304	449.84009	2378.14063	-2140.19946	383.95520	2390.05469	-2191.94507	420.37173	2405.70459	-2179.95435	400.68600	2447.24731	-2186.91577	417.12943	2464.79272	-2172.77563	413.83896	2376.48779	-2215.16724	434.85599	2399.21362	-2194.11279	451.01111	2422.48047	-2229.43970	481.34753	2443.97949	-2221.35278	491.97556	2315.24634	-2040.60913	402.33456	2380.88013	-2047.96484	541.72742	2311.75952	-2154.30103	
